<?xml version="1.0" encoding="UTF-8"?>
<svg version="1.1" xmlns="http://www.w3.org/2000/svg" width="320" height="98">
<path d="M0 0 C2.3125 0.375 2.3125 0.375 3.3125 1.375 C3.66643098 5.62217172 3.39854928 8.35849854 1.6875 12.25 C-1.72928545 21.58600531 1.94420892 34.07099933 4.3125 43.375 C4.79460937 42.80910156 5.27671875 42.24320313 5.7734375 41.66015625 C6.40507812 40.92667969 7.03671875 40.19320312 7.6875 39.4375 C8.31398437 38.70660156 8.94046875 37.97570313 9.5859375 37.22265625 C11.3125 35.375 11.3125 35.375 13.3125 34.375 C15.37109375 34.390625 15.37109375 34.390625 17.75 34.625 C18.92369141 34.72554687 18.92369141 34.72554687 20.12109375 34.828125 C22.67212232 35.46474532 23.64857581 36.38471125 25.3125 38.375 C25.9725 35.735 26.6325 33.095 27.3125 30.375 C30.55321366 30.28498018 33.19133393 30.57241444 36.3125 31.375 C37.66663422 31.4795876 39.02080431 31.58371128 40.375 31.6875 C44.3125 32.375 44.3125 32.375 46.1875 34.1875 C47.2444512 36.2426829 48.28071801 38.3071008 49.3125 40.375 C49.49425781 39.71113281 49.67601562 39.04726563 49.86328125 38.36328125 C52.71009036 28.36295181 52.71009036 28.36295181 55.3125 25.375 C58.5 24.5625 58.5 24.5625 61.3125 24.375 C63.90176097 28.25889145 63.21154367 29.7299672 62.4375 34.25 C61.74914079 38.35401502 61.16996289 42.20974876 61.3125 46.375 C63.9525 47.365 66.5925 48.355 69.3125 49.375 C69.07853516 48.22837891 69.07853516 48.22837891 68.83984375 47.05859375 C67.30409183 38.60687293 66.40593186 29.84498377 68.3125 21.375 C70.3671875 19.94921875 70.3671875 19.94921875 72.3125 19.375 C75.86085787 22.44826393 77.12845828 25.02285732 78.4375 29.5 C79.62688568 33.87482885 79.62688568 33.87482885 82.3125 37.375 C82.69140625 39.46875 82.69140625 39.46875 82.875 41.875 C83.12286169 45.25144563 83.12286169 45.25144563 84.3125 48.375 C88.70247756 48.14987295 91.3075759 46.85394801 94.8125 44.375 C98.30615597 41.91409706 100.91998135 40.48481297 105.3125 40.375 C106.3125 41.375 106.3125 41.375 106.8125 43.5 C106.00788048 48.12656222 102.8501834 50.47810454 99.3125 53.375 C97.29940554 54.71959517 95.25332431 55.96149659 93.1640625 57.18359375 C90.5175596 58.88651228 88.49891942 61.12784671 86.3125 63.375 C85.631875 63.705 84.95125 64.035 84.25 64.375 C81.51781316 65.78516095 80.18927104 67.97038711 78.3125 70.375 C74.79525862 73.375 74.79525862 73.375 72.3125 73.375 C72.21324219 73.94476563 72.11398437 74.51453125 72.01171875 75.1015625 C70.64991675 79.52932096 67.25253612 82.87611403 64.3125 86.375 C63.81234375 86.973125 63.3121875 87.57125 62.796875 88.1875 C59.61134917 91.68807783 56.69112054 93.31847688 52.14453125 94.63671875 C50.20362506 95.27744473 50.20362506 95.27744473 48.76953125 96.94140625 C47.3125 98.375 47.3125 98.375 44.1875 98.625 C41.3125 98.375 41.3125 98.375 40.3125 97.375 C40.25 94.1875 40.25 94.1875 41.3125 90.375 C43.75400046 88.00561137 46.4286744 86.16835852 49.3125 84.375 C48.76541273 81.83755685 48.76541273 81.83755685 47.3125 79.375 C45.8584375 79.189375 45.8584375 79.189375 44.375 79 C43.364375 78.79375 42.35375 78.5875 41.3125 78.375 C39.96226448 75.91564245 39.11770715 73.99858886 38.3125 71.375 C37.920625 70.240625 37.52875 69.10625 37.125 67.9375 C36.7228125 66.6690625 36.7228125 66.6690625 36.3125 65.375 C35.3225 67.355 34.3325 69.335 33.3125 71.375 C30.9375 71.5625 30.9375 71.5625 28.3125 71.375 C26.56622522 68.75558783 25.92527612 67.33675123 25.3125 64.375 C24.4875 65.2 23.6625 66.025 22.8125 66.875 C19.64511566 69.50452662 17.34425316 70.00003096 13.28125 69.75 C10.30444092 69.18298875 7.8919721 67.92268326 5.3125 66.375 C5.76374826 73.94795832 5.76374826 73.94795832 7.4375 81.3125 C8.28715281 84.28628482 8.44020529 85.55573678 7.3125 88.375 C5.0625 89.125 5.0625 89.125 2.3125 89.375 C-3.33063351 85.61291099 -5.5044452 77.90860963 -6.8125 71.5625 C-7.11709352 69.83556352 -7.40772143 68.10612991 -7.6875 66.375 C-7.873125 65.28574219 -8.05875 64.19648437 -8.25 63.07421875 C-8.74038626 60.17617219 -9.21885213 57.27662829 -9.6875 54.375 C-9.92533203 55.96441406 -9.92533203 55.96441406 -10.16796875 57.5859375 C-10.4024655 58.97415823 -10.63820767 60.36216899 -10.875 61.75 C-10.97619141 62.44867188 -11.07738281 63.14734375 -11.18164062 63.8671875 C-11.54296875 65.8984375 -11.54296875 65.8984375 -12.6875 69.375 C-15.30078125 70.8515625 -15.30078125 70.8515625 -17.6875 71.375 C-19.6875 69.625 -19.6875 69.625 -21.6875 67.375 C-21.6875 66.055 -21.6875 64.735 -21.6875 63.375 C-23.1725 62.88 -23.1725 62.88 -24.6875 62.375 C-25.6015625 59.57421875 -25.6015625 59.57421875 -26.3125 56.0625 C-26.67214844 54.33580078 -26.67214844 54.33580078 -27.0390625 52.57421875 C-27.25304687 51.51847656 -27.46703125 50.46273437 -27.6875 49.375 C-28.01117774 48.03928985 -28.33951027 46.70458341 -28.6875 45.375 C-28.82027344 46.31601562 -28.95304687 47.25703125 -29.08984375 48.2265625 C-29.26644531 49.47179688 -29.44304687 50.71703125 -29.625 52 C-29.79902344 53.22976562 -29.97304687 54.45953125 -30.15234375 55.7265625 C-30.32894531 56.93054687 -30.50554687 58.13453125 -30.6875 59.375 C-30.83316406 60.47585937 -30.97882813 61.57671875 -31.12890625 62.7109375 C-31.6875 65.375 -31.6875 65.375 -33.6875 67.375 C-33.81647097 69.28465258 -33.81647097 69.28465258 -33.625 71.4375 C-33.49355107 76.5064994 -34.69001965 80.73836166 -36.6875 85.375 C-37.6875 86.375 -37.6875 86.375 -40.25 86.4375 C-41.054375 86.416875 -41.85875 86.39625 -42.6875 86.375 C-45.03549169 82.70108359 -44.86258211 79.59512352 -44.75 75.3125 C-44.5876569 70.25126487 -44.5876569 70.25126487 -45.6875 65.375 C-46.15339222 59.08545506 -46.15339222 59.08545506 -44.19921875 56.10546875 C-42.26267125 52.60767366 -42.31806168 50.04611017 -42.25 46.0625 C-42.03513054 40.02995195 -41.24093067 34.41381392 -39.75 28.5625 C-39.57992432 27.88727295 -39.40984863 27.2120459 -39.23461914 26.51635742 C-38.38749714 23.35449576 -37.52261341 21.12767012 -35.6875 18.375 C-33.0625 18.1875 -33.0625 18.1875 -30.6875 18.375 C-30.49414062 17.82070313 -30.30078125 17.26640625 -30.1015625 16.6953125 C-29.84117187 15.97085937 -29.58078125 15.24640625 -29.3125 14.5 C-29.05726563 13.78070313 -28.80203125 13.06140625 -28.5390625 12.3203125 C-27.6875 10.375 -27.6875 10.375 -25.6875 8.375 C-23.125 8.1875 -23.125 8.1875 -20.6875 8.375 C-19.6875 9.375 -19.6875 9.375 -19.5625 12.5625 C-19.6875 16.375 -19.6875 16.375 -20.375 19.125 C-20.85889144 24.15747097 -19.19067614 28.60220345 -17.6875 33.375 C-15.63380453 28.77863395 -13.92199637 24.2006041 -12.43359375 19.390625 C-11.6875 17.375 -11.6875 17.375 -9.6875 14.375 C-9.19435118 12.92806884 -8.73840822 11.4681307 -8.3125 10 C-5.29071853 0.73823979 -5.29071853 0.73823979 0 0 Z M13.3125 51.375 C12.9825 52.035 12.6525 52.695 12.3125 53.375 C12.9725 53.375 13.6325 53.375 14.3125 53.375 C13.9825 52.715 13.6525 52.055 13.3125 51.375 Z M44.3125 55.375 C44.45558594 56.08011719 44.59867187 56.78523438 44.74609375 57.51171875 C45.31727056 60.39911601 45.85155311 63.29109386 46.375 66.1875 C46.55160156 67.16332031 46.72820312 68.13914062 46.91015625 69.14453125 C47.04292969 69.88058594 47.17570312 70.61664063 47.3125 71.375 C47.6425 71.375 47.9725 71.375 48.3125 71.375 C48.3125 66.095 48.3125 60.815 48.3125 55.375 C46.9925 55.375 45.6725 55.375 44.3125 55.375 Z M59.3125 58.375 C57.46912615 60.21837385 57.62635376 63.13827741 57.25 65.625 C57.07339844 66.76453125 56.89679688 67.9040625 56.71484375 69.078125 C56.37121212 71.89390262 56.23269921 74.54473183 56.3125 77.375 C59.07386152 74.99018778 60.02663929 72.75038437 61.3125 69.375 C62.91541359 66.09284361 63.6813148 64.68325324 67 63.0625 C67.763125 62.835625 68.52625 62.60875 69.3125 62.375 C69.3125 61.385 69.3125 60.395 69.3125 59.375 C67.66742782 59.18093522 66.02140406 58.99492065 64.375 58.8125 C63.45847656 58.70808594 62.54195313 58.60367188 61.59765625 58.49609375 C60.46650391 58.43615234 60.46650391 58.43615234 59.3125 58.375 Z " fill="#B9D942" transform="translate(213.6875,-0.375)"/>
<path d="M0 0 C3.40105309 1.18690898 6.69062268 2.58169543 10 4 C10.99 4.33 11.98 4.66 13 5 C13 5.66 13 6.32 13 7 C13.763125 7.020625 14.52625 7.04125 15.3125 7.0625 C18 8 18 8 19.8125 11.5625 C20.4003125 13.2640625 20.4003125 13.2640625 21 15 C21.33 14.67 21.66 14.34 22 14 C23.99958364 13.95919217 26.00045254 13.95745644 28 14 C28.495 15.98 28.495 15.98 29 18 C29.66 18 30.32 18 31 18 C30.98839844 18.85464844 30.97679687 19.70929687 30.96484375 20.58984375 C30.95582031 21.69457031 30.94679687 22.79929687 30.9375 23.9375 C30.92589844 25.03964844 30.91429687 26.14179687 30.90234375 27.27734375 C30.68737429 29.91447634 30.68737429 29.91447634 32 31 C32.07244053 33.01964199 32.08377188 35.04167124 32.0625 37.0625 C32.05347656 38.16722656 32.04445312 39.27195313 32.03515625 40.41015625 C32.02355469 41.26480469 32.01195312 42.11945312 32 43 C32.66 43 33.32 43 34 43 C34.2784375 41.453125 34.2784375 41.453125 34.5625 39.875 C35.91184764 35.13300685 38.96495521 32.63116706 43 30 C47.65306288 28.04081563 52.29966653 29.76091427 57 31 C56.98839844 30.08476563 56.97679688 29.16953125 56.96484375 28.2265625 C56.95582031 27.03804687 56.94679688 25.84953125 56.9375 24.625 C56.92589844 23.44164063 56.91429688 22.25828125 56.90234375 21.0390625 C57 18 57 18 58 16 C60.03125 15.55078125 60.03125 15.55078125 62.5 15.3125 C63.3146875 15.22613281 64.129375 15.13976563 64.96875 15.05078125 C65.97421875 15.02564453 65.97421875 15.02564453 67 15 C68 16 68 16 68.09765625 19.37890625 C68.09098369 20.77347077 68.07902532 22.16801743 68.0625 23.5625 C68.05798828 24.27341797 68.05347656 24.98433594 68.04882812 25.71679688 C68.03700864 27.47790013 68.01907263 29.23896036 68 31 C72.10474394 28.27643486 72.10474394 28.27643486 76.16015625 25.48046875 C81.34151824 21.95884489 81.34151824 21.95884489 85 22.1875 C85.66 22.455625 86.32 22.72375 87 23 C87.3125 25.6875 87.3125 25.6875 87 29 C84.8125 31.5625 84.8125 31.5625 82 34 C81.175 34.825 80.35 35.65 79.5 36.5 C77.749876 38.250124 75.97693746 39.97759309 74.1875 41.6875 C71.77093338 43.71162149 71.77093338 43.71162149 72 46 C73.76449549 47.88618484 75.58624497 49.64190238 77.5390625 51.33203125 C79.34286035 53.39144751 79.84681697 55.11628646 80.5625 57.75 C80.92988281 59.08224609 80.92988281 59.08224609 81.3046875 60.44140625 C81.53414063 61.28574219 81.76359375 62.13007812 82 63 C82.5878125 64.8253125 82.5878125 64.8253125 83.1875 66.6875 C84.05828942 70.23764147 84.14862906 73.35858798 84 77 C82.515 77.495 82.515 77.495 81 78 C81 78.66 81 79.32 81 80 C79.35 80 77.7 80 76 80 C75.5875 79.01 75.175 78.02 74.75 77 C73.58839646 74.28228606 72.33813107 71.63508887 71 69 C69.16823218 65.39282645 67.55584664 61.73403193 66 58 C65.73445313 58.77085938 65.46890625 59.54171875 65.1953125 60.3359375 C64.84210938 61.33882812 64.48890625 62.34171875 64.125 63.375 C63.77695313 64.37273437 63.42890625 65.37046875 63.0703125 66.3984375 C62 69 62 69 60 71 C58 70.8125 58 70.8125 56 70 C53.5705484 66.3558226 53.83820425 64.28758728 54 60 C48.95364171 61.5822311 46.15240459 62.64667938 43 67 C40.3125 67.25 40.3125 67.25 38 67 C37.566875 66.030625 37.13375 65.06125 36.6875 64.0625 C35.2985139 60.72268235 35.2985139 60.72268235 32 60 C31.26665571 63.97754128 31.26665571 63.97754128 31 68 C31.42925781 68.41765625 31.85851563 68.8353125 32.30078125 69.265625 C36.56424482 73.61729816 40.3568352 80.95589854 40.5 87.125 C40 90 40 90 38 92 C34.086289 91.7300889 31.73355217 89.66846759 29 87 C27.37399947 84.49530221 25.88148305 81.94915197 24.4296875 79.33984375 C23.12073122 77.19759016 21.75947902 75.75427346 20 74 C20 73.34 20 72.68 20 72 C19.195625 71.62875 19.195625 71.62875 18.375 71.25 C10.41176471 67.05882353 10.41176471 67.05882353 9.125 63.75 C9.08375 63.1725 9.0425 62.595 9 62 C8.113125 62.103125 7.22625 62.20625 6.3125 62.3125 C1.99315142 61.90501428 0.74357025 60.2277297 -2 57 C-2.02688151 58.64574566 -2.04634123 60.29161413 -2.0625 61.9375 C-2.07410156 62.85402344 -2.08570312 63.77054688 -2.09765625 64.71484375 C-2.25949049 66.96593327 -2.25949049 66.96593327 -1 68 C-1 70.33333333 -1 72.66666667 -1 75 C-0.70996094 75.9590625 -0.70996094 75.9590625 -0.4140625 76.9375 C0.1204319 79.5998872 -0.46067989 81.15005198 -1.375 83.6875 C-1.65085937 84.47511719 -1.92671875 85.26273437 -2.2109375 86.07421875 C-3 88 -3 88 -4 89 C-5.66617115 89.04063832 -7.33388095 89.042721 -9 89 C-11.86861085 83.64525975 -13.67364432 78.9175869 -15 73 C-15.33 72.34 -15.66 71.68 -16 71 C-16.26739047 69.11455907 -16.48751709 67.2223106 -16.68359375 65.328125 C-16.80669922 64.18859375 -16.92980469 63.0490625 -17.05664062 61.875 C-17.30888062 59.47419262 -17.55891064 57.07315194 -17.80664062 54.671875 C-17.93103516 53.5271875 -18.05542969 52.3825 -18.18359375 51.203125 C-18.29243896 50.15801758 -18.40128418 49.11291016 -18.51342773 48.03613281 C-19.0224008 44.86022263 -19.9420713 42.03160859 -21 39 C-21.19981212 37.31803724 -21.34903918 35.62897814 -21.4375 33.9375 C-21.77130383 29.80204139 -22.7562034 27.51202946 -25 24 C-25.125 20.8125 -25.125 20.8125 -25 18 C-25.33 17.34 -25.66 16.68 -26 16 C-26.04022391 13.6670134 -26.04320247 11.33293334 -26 9 C-22.27001101 6.64021105 -19.84008079 5.11790608 -15.4375 4.5 C-11.87122978 4.23482189 -11.87122978 4.23482189 -8.9375 1.9375 C-5.40411117 -0.39303306 -4.15914909 -0.63986909 0 0 Z M-4 18 C-5.65 19.32 -7.3 20.64 -9 22 C-7.89061647 28.30596952 -6.06802099 33.37529486 -3 39 C1.51826425 37.21147069 1.51826425 37.21147069 4.3125 33.4375 C4.539375 32.633125 4.76625 31.82875 5 31 C5.33 30.34 5.66 29.68 6 29 C5.50283229 26.07292512 4.54797013 23.53163007 3 21 C0.67761235 19.42942742 -1.27417652 18.82289011 -4 18 Z M21 29 C20.74605469 29.58007812 20.49210937 30.16015625 20.23046875 30.7578125 C19.5174093 32.3762171 18.79837459 33.99199871 18.07421875 35.60546875 C17.20444545 37.54427251 16.34986697 39.48988819 15.5 41.4375 C13.90370655 44.16450132 12.94439222 44.98469234 10 46 C13.21294525 49.48203576 13.21294525 49.48203576 17.125 52.0625 C19 53 19 53 22 57 C22 47.76 22 38.52 22 29 C21.67 29 21.34 29 21 29 Z M50 39 C49.67 39.99 49.34 40.98 49 42 C46.9375 43.1875 46.9375 43.1875 45 44 C45 45.98 45 47.96 45 50 C48.63 50 52.26 50 56 50 C56.33 49.01 56.66 48.02 57 47 C56.01 46.34 55.02 45.68 54 45 C53.8125 41.875 53.8125 41.875 54 39 C52.68 39 51.36 39 50 39 Z " fill="#B9D942" transform="translate(26,6)"/>
<path d="M0 0 C2.9921875 1.09375 2.9921875 1.09375 5.875 2.5 C7.32519531 3.19609375 7.32519531 3.19609375 8.8046875 3.90625 C9.52914062 4.2671875 10.25359375 4.628125 11 5 C11 5.66 11 6.32 11 7 C11.804375 6.979375 12.60875 6.95875 13.4375 6.9375 C16 7 16 7 17 8 C17.33333333 10.33333333 17.66666667 12.66666667 18 15 C18.495 15.495 18.495 15.495 19 16 C19.88179539 23.28565372 18.40244443 28.61731228 15 35 C14.6803125 35.72960938 14.360625 36.45921875 14.03125 37.2109375 C13 39 13 39 10.375 39.75 C9.59125 39.8325 8.8075 39.915 8 40 C7.06934867 42.60582371 6.85082593 43.64198224 7.9375 46.25 C8.288125 46.8275 8.63875 47.405 9 48 C9.99 48 10.98 48 12 48 C12 48.66 12 49.32 12 50 C12.70125 50 13.4025 50 14.125 50 C19.36471418 51.82250928 21.91350403 57.08776709 24.5625 61.75 C25.93207663 64.17163215 25.93207663 64.17163215 28.5 65.9375 C31.44102236 68.36384345 32.44953246 70.54668593 34 74 C34.556875 74.804375 35.11375 75.60875 35.6875 76.4375 C37.38224649 79.74629077 37.21554429 82.33574706 37 86 C32.81202179 83.48721307 30.02995149 81.51100332 28 77 C28 75.68 28 74.36 28 73 C27.071875 72.62875 27.071875 72.62875 26.125 72.25 C23.59641373 70.76259631 23.28160996 69.56321991 22 67 C20.06669397 65.90833725 20.06669397 65.90833725 18 65 C17 64 16 63 15 62 C14.01 61.67 13.02 61.34 12 61 C11.3125 58.9375 11.3125 58.9375 11 57 C9.88625 56.9175 8.7725 56.835 7.625 56.75 C6.42875 56.5025 5.2325 56.255 4 56 C2.875 54 2.875 54 2 52 C-0.43259568 51.24680201 -0.43259568 51.24680201 -3 51 C-4.485 50.505 -4.485 50.505 -6 50 C-5.649375 51.010625 -5.29875 52.02125 -4.9375 53.0625 C-4.10064469 55.94820796 -4.03241626 57.21475772 -4.5 60.3125 C-4.97720922 63.831918 -4.76087985 65.5245172 -3.9375 68.875 C-2.74285591 74.03333076 -3.4307269 78.00246875 -5 83 C-6.32 82.67 -7.64 82.34 -9 82 C-9.65003625 79.79290017 -10.29484745 77.58426108 -10.9375 75.375 C-11.29714844 74.14523438 -11.65679687 72.91546875 -12.02734375 71.6484375 C-13.26537876 67.00456322 -14.00314208 62.39838502 -14.5 57.625 C-14.58378906 56.85800781 -14.66757813 56.09101562 -14.75390625 55.30078125 C-14.91234388 53.81951512 -15.06634421 52.33776418 -15.21484375 50.85546875 C-15.54690204 47.80868834 -15.97547346 45.06873134 -17.0078125 42.17578125 C-18.3761875 37.79590378 -18.39381919 33.58397216 -18.55859375 29.0234375 C-19.04213563 25.71138961 -19.97238115 24.56148658 -22 22 C-22.22265625 19.96484375 -22.22265625 19.96484375 -22.0625 17.9375 C-21.62639485 13.94525226 -21.62639485 13.94525226 -24 11 C-24 9 -24 9 -23 7 C-19.73592317 4.90166489 -17.2270252 4.03131382 -13.375 3.5 C-10.02665898 3.28017739 -10.02665898 3.28017739 -7.9375 1.4375 C-5.18306502 -0.60611305 -3.38543287 -0.25665737 0 0 Z M-4 15 C-5.65 16.32 -7.3 17.64 -9 19 C-7.89061647 25.30596952 -6.06802099 30.37529486 -3 36 C1.51826425 34.21147069 1.51826425 34.21147069 4.3125 30.4375 C4.539375 29.633125 4.76625 28.82875 5 28 C5.33 27.34 5.66 26.68 6 26 C5.50283229 23.07292512 4.54797013 20.53163007 3 18 C0.67761235 16.42942742 -1.27417652 15.82289011 -4 15 Z " fill="#43A1A9" transform="translate(26,9)"/>
<path d="M0 0 C3.25232954 2.64370647 4.2242314 5.74925374 5.625 9.625 C6.81216621 13.60144743 6.81216621 13.60144743 9 17 C9.28489933 19.18875042 9.44758941 21.37794233 9.62109375 23.578125 C10.04232766 26.27054791 10.90977218 28.51057292 12 31 C14.06331206 29.89735154 16.12561589 28.79281634 18.1875 27.6875 C19.91033203 26.76517578 19.91033203 26.76517578 21.66796875 25.82421875 C23.72474061 24.69817835 25.75608057 23.52219159 27.73828125 22.26953125 C30 21 30 21 33 21 C31.47275034 25.03630268 28.96243269 26.78985046 25.5 29.25 C24.5203125 29.95640625 23.540625 30.6628125 22.53125 31.390625 C20 33 20 33 18 33 C17.67 34.32 17.34 35.64 17 37 C16.05125 37.0825 15.1025 37.165 14.125 37.25 C13.09375 37.4975 12.0625 37.745 11 38 C9.85790183 39.78228936 9.85790183 39.78228936 9 42 C6.59737292 44.59743468 4.19004275 46.85520553 1.375 49 C-1.19594363 51.16500516 -2.39409461 53.06747712 -4 56 C-5.2704964 58.04049422 -6.59431196 60.05017465 -8 62 C-8.66 62 -9.32 62 -10 62 C-10.24105469 62.61875 -10.48210937 63.2375 -10.73046875 63.875 C-12.3048991 66.51035418 -13.47483044 66.93170087 -16.3125 68 C-20.07978452 69.53121887 -22.95324069 71.24808837 -26 74 C-27.65 73.34 -29.3 72.68 -31 72 C-29.63842622 66.70499087 -26.39656045 64.76254467 -22 62 C-22.54708727 59.46255685 -22.54708727 59.46255685 -24 57 C-25.4540625 56.814375 -25.4540625 56.814375 -26.9375 56.625 C-27.948125 56.41875 -28.95875 56.2125 -30 56 C-31.35023552 53.54064245 -32.19479285 51.62358886 -33 49 C-33.391875 47.865625 -33.78375 46.73125 -34.1875 45.5625 C-34.5896875 44.2940625 -34.5896875 44.2940625 -35 43 C-35.99 44.98 -36.98 46.96 -38 49 C-39.65 49 -41.3 49 -43 49 C-44.19007664 45.42977009 -43.85565808 43.05095146 -43.5 39.3125 C-43.01010435 33.60787635 -43.01010435 33.60787635 -43.5 27.9375 C-44.22474657 22.23012078 -43.5654076 16.70626746 -43 11 C-41.68 11 -40.36 11 -39 11 C-38.67 12.32 -38.34 13.64 -38 15 C-37.649375 14.484375 -37.29875 13.96875 -36.9375 13.4375 C-35 12 -35 12 -31.5 11.9375 C-28 13 -28 13 -26.0625 15.6875 C-24.77939759 19.68776045 -24.06715185 23.1343037 -26 27 C-24.02 26.67 -22.04 26.34 -20 26 C-19.95101563 25.34773438 -19.90203125 24.69546875 -19.8515625 24.0234375 C-19.25082102 17.00097673 -18.28252878 10.82423914 -14 5 C-13.01 5 -12.02 5 -11 5 C-11.23798085 6.90384683 -11.47663092 8.80761252 -11.71875 10.7109375 C-11.89838225 12.17294442 -12.06625038 13.63647689 -12.21875 15.1015625 C-12.67326172 19.30579594 -13.51554312 23.04144833 -15 27 C-13.783125 27.103125 -12.56625 27.20625 -11.3125 27.3125 C-7.59852427 27.77427318 -5.00373615 28.65333113 -2 31 C-2 31.66 -2 32.32 -2 33 C-2.66 33 -3.32 33 -4 33 C-4 33.66 -4 34.32 -4 35 C-5.47968324 34.85950482 -6.95874516 34.71245174 -8.4375 34.5625 C-9.26121094 34.48128906 -10.08492188 34.40007813 -10.93359375 34.31640625 C-13 34 -13 34 -14 33 C-14.33 36.63 -14.66 40.26 -15 44 C-14.34 44.33 -13.68 44.66 -13 45 C-13.33 47.97 -13.66 50.94 -14 54 C-13.5875 52.96875 -13.175 51.9375 -12.75 50.875 C-10.59224617 45.91718423 -8.63555022 41.98133013 -3.875 39.125 C-1 38 -1 38 1 38 C2.00939703 33.68712179 2.21927361 31.0716921 0.5625 26.9375 C-2.59865017 18.5077662 -1.39868271 8.74176692 0 0 Z M-27 33 C-26.85691406 33.70511719 -26.71382813 34.41023438 -26.56640625 35.13671875 C-25.99522944 38.02411601 -25.46094689 40.91609386 -24.9375 43.8125 C-24.76089844 44.78832031 -24.58429688 45.76414062 -24.40234375 46.76953125 C-24.26957031 47.50558594 -24.13679688 48.24164063 -24 49 C-23.67 49 -23.34 49 -23 49 C-23 43.72 -23 38.44 -23 33 C-24.32 33 -25.64 33 -27 33 Z " fill="#B8D741" transform="translate(285,22)"/>
<path d="M0 0 C0.66 0 1.32 0 2 0 C1.52276636 3.26109651 0.91258026 6.28282856 -0.0625 9.4375 C-2.15473528 17.38799406 -0.28308405 25.03704325 1 33 C1.82508177 38.12276046 2.00556675 43.03839787 1.91333008 48.23364258 C1.75593311 57.79676167 1.61550298 69.23100595 6 78 C6.039992 79.99960012 6.04346799 82.00047242 6 84 C4.125 83.8125 4.125 83.8125 2 83 C0.9375 80.8125 0.9375 80.8125 0 78 C-0.495 77.113125 -0.99 76.22625 -1.5 75.3125 C-3.17627817 71.61071903 -3.88200642 68.15680495 -4.5703125 64.171875 C-4.90730958 61.96444768 -4.90730958 61.96444768 -6 60 C-6.2601793 57.60924136 -6.4592145 55.21165304 -6.625 52.8125 C-6.72039062 51.51957031 -6.81578125 50.22664063 -6.9140625 48.89453125 C-6.99714867 45.12921695 -6.55682326 41.71372803 -6 38 C-6.33 37.67 -6.66 37.34 -7 37 C-7.433125 38.8871875 -7.433125 38.8871875 -7.875 40.8125 C-8.57303539 43.8539399 -9.20446585 45.30669878 -11 48 C-11.54005913 49.92249447 -11.54005913 49.92249447 -11.8515625 52.01171875 C-11.98046875 52.76904297 -12.109375 53.52636719 -12.2421875 54.30664062 C-12.43167969 55.48516602 -12.43167969 55.48516602 -12.625 56.6875 C-12.7590625 57.48478516 -12.893125 58.28207031 -13.03125 59.10351562 C-13.3606146 61.0679402 -13.68116313 63.03383927 -14 65 C-15.32 65 -16.64 65 -18 65 C-19 64 -19 64 -19.0625 61.4375 C-19.041875 60.633125 -19.02125 59.82875 -19 59 C-20.485 58.505 -20.485 58.505 -22 58 C-22.66015625 56.29760742 -22.66015625 56.29760742 -23.0625 54.10546875 C-23.21976563 53.31462891 -23.37703125 52.52378906 -23.5390625 51.70898438 C-23.69117188 50.87689453 -23.84328125 50.04480469 -24 49.1875 C-25.26892967 42.07222384 -25.26892967 42.07222384 -29 36 C-29.37485246 34.34217778 -29.71267433 32.67521128 -30 31 C-30.05534912 31.61931396 -30.11069824 32.23862793 -30.16772461 32.87670898 C-30.42333022 35.73039529 -30.68040676 38.58394734 -30.9375 41.4375 C-31.06801758 42.89833008 -31.06801758 42.89833008 -31.20117188 44.38867188 C-31.73211128 50.26833412 -32.32675665 56.13489806 -33 62 C-33.66 62 -34.32 62 -35 62 C-35.04898438 62.85722656 -35.09796875 63.71445313 -35.1484375 64.59765625 C-35.54534244 70.66756456 -35.99208399 76.24397411 -38 82 C-38.99 81.67 -39.98 81.34 -41 81 C-41.22509088 76.70903831 -41.42723952 72.41730127 -41.625 68.125 C-41.68945312 66.90167969 -41.75390625 65.67835937 -41.8203125 64.41796875 C-41.871875 63.25136719 -41.9234375 62.08476563 -41.9765625 60.8828125 C-42.02893066 59.80402832 -42.08129883 58.72524414 -42.13525391 57.61376953 C-42 55 -42 55 -40 53 C-39.81766629 50.46227347 -39.72775868 47.97773848 -39.6875 45.4375 C-39.37349585 36.09310007 -36.98707808 27.80692024 -34 19 C-32.68 19.33 -31.36 19.66 -30 20 C-29.67386719 19.30132813 -29.34773437 18.60265625 -29.01171875 17.8828125 C-28.35623047 16.51769531 -28.35623047 16.51769531 -27.6875 15.125 C-27.25824219 14.22007813 -26.82898438 13.31515625 -26.38671875 12.3828125 C-25 10 -25 10 -22 8 C-21.06576355 11.01031744 -20.95550089 11.86650268 -22 15 C-21.96329438 17.27292486 -21.8492887 19.54504346 -21.6875 21.8125 C-21.60886719 23.01519531 -21.53023437 24.21789062 -21.44921875 25.45703125 C-21.01322847 28.89566761 -20.09413508 31.7261762 -19 35 C-18.72419137 37.28452807 -18.5156214 39.57818383 -18.375 41.875 C-18.30023438 43.02742188 -18.22546875 44.17984375 -18.1484375 45.3671875 C-18.09945312 46.23601563 -18.05046875 47.10484375 -18 48 C-17.97421875 47.29875 -17.9484375 46.5975 -17.921875 45.875 C-17.58548206 40.24806352 -16.90069897 36.12309819 -14.109375 31.23828125 C-12.19156678 27.36890058 -11.18487293 23.19900812 -10.02734375 19.05078125 C-9.01139646 16.03384271 -7.68383426 13.68589867 -6 11 C-5.690625 10.01 -5.38125 9.02 -5.0625 8 C-3.88209921 4.66710365 -2.41456192 2.56547204 0 0 Z " fill="#3D99A4" transform="translate(213,2)"/>
<path d="M0 0 C0 1.98 0 3.96 0 6 C0.66 6.33 1.32 6.66 2 7 C2 8.98 2 10.96 2 13 C2.825 12.443125 3.65 11.88625 4.5 11.3125 C5.04527344 10.95414063 5.59054688 10.59578125 6.15234375 10.2265625 C7.44920996 9.36564075 8.73206495 8.48341616 10.00390625 7.5859375 C15.34308553 3.95894285 15.34308553 3.95894285 19 4.1875 C19.66 4.455625 20.32 4.72375 21 5 C21.3125 7.6875 21.3125 7.6875 21 11 C18.8125 13.5625 18.8125 13.5625 16 16 C15.175 16.825 14.35 17.65 13.5 18.5 C11.749876 20.250124 9.97693746 21.97759309 8.1875 23.6875 C5.77093338 25.71162149 5.77093338 25.71162149 6 28 C7.76449549 29.88618484 9.58624497 31.64190238 11.5390625 33.33203125 C13.34286035 35.39144751 13.84681697 37.11628646 14.5625 39.75 C14.80742188 40.63816406 15.05234375 41.52632812 15.3046875 42.44140625 C15.64886719 43.70791016 15.64886719 43.70791016 16 45 C16.5878125 46.8253125 16.5878125 46.8253125 17.1875 48.6875 C18.05828942 52.23764147 18.14862906 55.35858798 18 59 C17.01 59.33 16.02 59.66 15 60 C15 60.66 15 61.32 15 62 C13.35 62 11.7 62 10 62 C9.38125 60.515 9.38125 60.515 8.75 59 C7.58839646 56.28228606 6.33813107 53.63508887 5 51 C3.16823218 47.39282645 1.55584664 43.73403193 0 40 C-0.26554687 40.77085938 -0.53109375 41.54171875 -0.8046875 42.3359375 C-1.33449219 43.84027344 -1.33449219 43.84027344 -1.875 45.375 C-2.22304687 46.37273437 -2.57109375 47.37046875 -2.9296875 48.3984375 C-4 51 -4 51 -6 53 C-8 52.8125 -8 52.8125 -10 52 C-12.4294516 48.3558226 -12.16179575 46.28758728 -12 42 C-12.69867188 42.2165625 -13.39734375 42.433125 -14.1171875 42.65625 C-15.02726562 42.9346875 -15.93734375 43.213125 -16.875 43.5 C-17.77992187 43.7784375 -18.68484375 44.056875 -19.6171875 44.34375 C-22 45 -22 45 -24 45 C-24 45.66 -24 46.32 -24 47 C-27 46 -27 46 -28.1875 44.125 C-29 42 -29 42 -29 39 C-29.99 39 -30.98 39 -32 39 C-33.25 32.375 -33.25 32.375 -31 29 C-30.20988819 26.41041887 -29.54444502 23.80381181 -28.87890625 21.1796875 C-28.58886719 20.46039063 -28.29882812 19.74109375 -28 19 C-27.01 18.67 -26.02 18.34 -25 18 C-24.484375 17.29875 -23.96875 16.5975 -23.4375 15.875 C-20.42913608 13.56087391 -19.43150156 13.86575301 -15.75 14.25 C-14.16353067 14.47925857 -12.57879955 14.72280619 -11 15 C-11.66 16.32 -12.32 17.64 -13 19 C-14.98 19 -16.96 19 -19 19 C-19.12375 19.928125 -19.12375 19.928125 -19.25 20.875 C-20 23 -20 23 -22.0625 24.25 C-22.701875 24.4975 -23.34125 24.745 -24 25 C-23.79375 25.9075 -23.5875 26.815 -23.375 27.75 C-22.9872755 31.11027897 -23.19588033 32.24075815 -25 35 C-24.01 34.505 -24.01 34.505 -23 34 C-21.45976004 33.93049459 -19.91665012 33.91547643 -18.375 33.9375 C-17.14910156 33.95103516 -17.14910156 33.95103516 -15.8984375 33.96484375 C-15.27195312 33.97644531 -14.64546875 33.98804688 -14 34 C-13.67 33.34 -13.34 32.68 -13 32 C-12.01 32 -11.02 32 -10 32 C-10.309375 31.443125 -10.61875 30.88625 -10.9375 30.3125 C-12.05761821 27.87459567 -12.56037364 25.63775814 -13 23 C-12.01 22.34 -11.02 21.68 -10 21 C-7.74902489 15.37256222 -7.69143856 9.81182328 -7.5390625 3.79296875 C-7 1 -7 1 -5.1484375 -0.44921875 C-3 -1 -3 -1 0 0 Z " fill="#B9D942" transform="translate(92,24)"/>
<path d="M0 0 C3 0.125 3 0.125 4 1.125 C4.09968672 3.22721693 4.12968203 5.33292604 4.125 7.4375 C4.12886719 9.16419922 4.12886719 9.16419922 4.1328125 10.92578125 C4.02314591 13.56745582 3.69533594 15.60983954 3 18.125 C2.69439938 22.78200973 2.69439938 22.78200973 4 27.125 C4.1875 30.625 4.1875 30.625 4 34.125 C2 36.125 2 36.125 -0.0625 36.4375 C-3.55536549 36.06591856 -6.53983436 35.0273249 -9.83984375 33.859375 C-12.20027247 33.0569146 -14.53943876 32.52186472 -17 32.125 C-17 31.465 -17 30.805 -17 30.125 C-19.27292941 31.14389939 -20.83024561 31.93402631 -22.5 33.8125 C-24 35.125 -24 35.125 -26 35 C-28.20700414 34.03443569 -29.42932829 32.93127247 -31 31.125 C-31.66 32.445 -32.32 33.765 -33 35.125 C-34.98 35.125 -36.96 35.125 -39 35.125 C-39.39180108 33.54574025 -39.76280736 31.96131206 -40.125 30.375 C-40.33382812 29.49328125 -40.54265625 28.6115625 -40.7578125 27.703125 C-41.03763095 24.72441247 -40.41619024 23.68762996 -39 21.125 C-38.80571065 19.10132636 -38.80571065 19.10132636 -38.8125 17 C-38.30530318 10.90349427 -34.71388652 6.76978235 -31 2.125 C-29.35 2.455 -27.7 2.785 -26 3.125 C-25.67 4.775 -25.34 6.425 -25 8.125 C-24.401875 7.91875 -23.80375 7.7125 -23.1875 7.5 C-21 7.125 -21 7.125 -18 9.125 C-18 9.785 -18 10.445 -18 11.125 C-17.34 11.125 -16.68 11.125 -16 11.125 C-15.34 9.475 -14.68 7.825 -14 6.125 C-11.625 6.375 -11.625 6.375 -9 7.125 C-7.8359375 9.171875 -7.8359375 9.171875 -7 11.125 C-6.79503906 10.41472656 -6.59007812 9.70445313 -6.37890625 8.97265625 C-6.10949219 8.05355469 -5.84007812 7.13445313 -5.5625 6.1875 C-5.29566406 5.27097656 -5.02882812 4.35445312 -4.75390625 3.41015625 C-3.64597235 0.05191101 -3.67729357 0.15322057 0 0 Z " fill="#398A93" transform="translate(156,34.875)"/>
<path d="M0 0 C2.86759996 1.02371523 3.82222655 1.62829188 5.16015625 4.42578125 C5.60681641 5.85470703 5.60681641 5.85470703 6.0625 7.3125 C7.02326506 10.33499265 7.91176554 12.85708196 9.58203125 15.5625 C11.07731115 18.1328985 11.4356619 19.75275939 11.625 22.6875 C11.8369033 25.96790778 11.8369033 25.96790778 13 29 C17.38997756 28.77487295 19.9950759 27.47894801 23.5 25 C26.99365597 22.53909706 29.60748135 21.10981297 34 21 C35 22 35 22 35.5 24.125 C34.69538048 28.75156222 31.5376834 31.10310454 28 34 C25.98690554 35.34459517 23.94082431 36.58649659 21.8515625 37.80859375 C19.2050596 39.51151228 17.18641942 41.75284671 15 44 C14.319375 44.33 13.63875 44.66 12.9375 45 C10.20531316 46.41016095 8.87677104 48.59538711 7 51 C3.48275862 54 3.48275862 54 1 54 C0.90074219 54.56976563 0.80148437 55.13953125 0.69921875 55.7265625 C-0.66258325 60.15432096 -4.05996388 63.50111403 -7 67 C-7.50015625 67.598125 -8.0003125 68.19625 -8.515625 68.8125 C-11.70115083 72.31307783 -14.62137946 73.94347688 -19.16796875 75.26171875 C-21.10947239 75.9018681 -21.10947239 75.9018681 -22.5390625 77.5703125 C-24 79 -24 79 -27.1875 79.1875 C-28.5796875 79.0946875 -28.5796875 79.0946875 -30 79 C-30.33 77.68 -30.66 76.36 -31 75 C-30.01 74.505 -30.01 74.505 -29 74 C-28.505 74.99 -28.505 74.99 -28 76 C-25.87312219 75.01252102 -24.06795905 74.0558235 -22.25 72.5625 C-20.09899398 71.06874582 -18.52328635 70.47236619 -16.0625 69.6875 C-11.70200011 68.14231358 -9.7135651 65.76884042 -7 62 C-5.948125 60.7315625 -5.948125 60.7315625 -4.875 59.4375 C-2.95218798 57.05886322 -2.95218798 57.05886322 -1.5625 54.4375 C0.26365065 51.58870498 2.22847483 49.91874819 5 48 C5.66 48 6.32 48 7 48 C7.28875 47.401875 7.5775 46.80375 7.875 46.1875 C9 44 9 44 11 41 C14.125 40.3125 14.125 40.3125 17 40 C17.05542969 39.41089844 17.11085938 38.82179687 17.16796875 38.21484375 C18.37816995 34.99332226 20.36769943 34.25137238 23.3125 32.5625 C27.48411982 30.16200849 30.17286635 27.91500931 33 24 C29.41469882 25.43412047 26.33477599 26.77439009 23.125 28.9375 C19.27349723 31.47949183 15.24703691 33.22568236 11 35 C9.34024395 30.68463426 8.69404558 26.81805074 8.44140625 22.24609375 C7.8782057 19.38025023 6.533683 17.47633695 5 15 C4.22535596 13.08022999 3.49533154 11.14181097 2.8125 9.1875 C2.46832031 8.21167969 2.12414062 7.23585938 1.76953125 6.23046875 C1.51558594 5.49441406 1.26164062 4.75835937 1 4 C-0.87302485 13.83338048 -0.85317256 23.40447762 2.453125 32.87109375 C3.28132713 36.09516632 2.60498742 38.15479503 1 41 C0.01 41.33 -0.98 41.66 -2 42 C-2 41.34 -2 40.68 -2 40 C-5.3 40 -8.6 40 -12 40 C-12.33 42.31 -12.66 44.62 -13 47 C-13.99 47.33 -14.98 47.66 -16 48 C-15.67 43.71 -15.34 39.42 -15 35 C-11.37 35.99 -7.74 36.98 -4 38 C-4 37.34 -4 36.68 -4 36 C-3.34 36 -2.68 36 -2 36 C-4.42182607 32.3672609 -5.50445117 32.31868053 -9.625 31.3125 C-10.62789063 31.06113281 -11.63078125 30.80976562 -12.6640625 30.55078125 C-13.43492187 30.36902344 -14.20578125 30.18726562 -15 30 C-14.855625 29.35933594 -14.71125 28.71867187 -14.5625 28.05859375 C-13.69361332 24.00982318 -13 20.34552782 -13 16.1875 C-13 12.91768902 -12.41383581 10.91603637 -11 8 C-14.09284159 8.71842323 -14.09284159 8.71842323 -15.58203125 11.07421875 C-17.27560635 14.56867537 -18.02336679 18.02004533 -18.6875 21.8125 C-18.81705078 22.50537109 -18.94660156 23.19824219 -19.08007812 23.91210938 C-19.39557559 25.60644764 -19.69902647 27.30302158 -20 29 C-22.97 29.495 -22.97 29.495 -26 30 C-25.95875 28.783125 -25.9175 27.56625 -25.875 26.3125 C-25.86245492 22.78105873 -26.40001783 20.19996434 -28 17 C-32.89895217 15.81503452 -32.89895217 15.81503452 -37.4375 17.4375 C-37.953125 17.953125 -38.46875 18.46875 -39 19 C-39.495 16.525 -39.495 16.525 -40 14 C-40.66 14 -41.32 14 -42 14 C-42.19511725 16.74965228 -42.38136433 19.49942132 -42.5625 22.25 C-42.61857422 23.02730469 -42.67464844 23.80460937 -42.73242188 24.60546875 C-42.78076172 25.35957031 -42.82910156 26.11367188 -42.87890625 26.890625 C-42.9260376 27.58188477 -42.97316895 28.27314453 -43.02172852 28.98535156 C-42.99846821 31.14202604 -42.53160947 32.9171707 -42 35 C-42.08484937 37.41957553 -42.23644168 39.83730012 -42.4375 42.25 C-42.53933594 43.51328125 -42.64117187 44.7765625 -42.74609375 46.078125 C-42.82988281 47.04234375 -42.91367188 48.0065625 -43 49 C-43.66 49 -44.32 49 -45 49 C-45.33 47.68 -45.66 46.36 -46 45 C-48.97 47.475 -48.97 47.475 -52 50 C-52.33 49.34 -52.66 48.68 -53 48 C-52.566875 47.48050781 -52.13375 46.96101563 -51.6875 46.42578125 C-51.130625 45.72839844 -50.57375 45.03101563 -50 44.3125 C-49.1646875 43.28576172 -49.1646875 43.28576172 -48.3125 42.23828125 C-45.92303361 38.16338768 -47.09864424 34.40662816 -48 30 C-48.04898438 29.27039063 -48.09796875 28.54078125 -48.1484375 27.7890625 C-48.38060406 22.98792236 -48.38060406 22.98792236 -50.6875 18.9375 C-53.57981882 17.76493832 -55.90832951 17.78920428 -59 18 C-58.01 16.515 -58.01 16.515 -57 15 C-49.49230769 15.61538462 -49.49230769 15.61538462 -47 17.5625 C-46.67 18.036875 -46.34 18.51125 -46 19 C-45.34 16.36 -44.68 13.72 -44 11 C-40.75928634 10.90998018 -38.12116607 11.19741444 -35 12 C-33.64586578 12.1045876 -32.29169569 12.20871128 -30.9375 12.3125 C-27 13 -27 13 -25.125 14.8125 C-24.0680488 16.8676829 -23.03178199 18.9321008 -22 21 C-21.81824219 20.33613281 -21.63648438 19.67226563 -21.44921875 18.98828125 C-18.60240964 8.98795181 -18.60240964 8.98795181 -16 6 C-12.8125 5.1875 -12.8125 5.1875 -10 5 C-7.41073903 8.88389145 -8.10095633 10.3549672 -8.875 14.875 C-9.56335921 18.97901502 -10.14253711 22.83474876 -10 27 C-7.36 27.99 -4.72 28.98 -2 30 C-2.15597656 29.23558594 -2.31195313 28.47117187 -2.47265625 27.68359375 C-4.03190761 19.10254817 -4.66115507 10.61793871 -3 2 C-2.01 1.34 -1.02 0.68 0 0 Z " fill="#B9D841" transform="translate(285,19)"/>
<path d="M0 0 C3.25232954 2.64370647 4.2242314 5.74925374 5.625 9.625 C6.81216621 13.60144743 6.81216621 13.60144743 9 17 C9.28489933 19.18875042 9.44758941 21.37794233 9.62109375 23.578125 C10.04232766 26.27054791 10.90977218 28.51057292 12 31 C14.06331206 29.89735154 16.12561589 28.79281634 18.1875 27.6875 C19.33605469 27.07261719 20.48460937 26.45773438 21.66796875 25.82421875 C23.72474061 24.69817835 25.75608057 23.52219159 27.73828125 22.26953125 C30 21 30 21 33 21 C31.47275034 25.03630268 28.96243269 26.78985046 25.5 29.25 C24.5203125 29.95640625 23.540625 30.6628125 22.53125 31.390625 C20 33 20 33 18 33 C17.67 34.32 17.34 35.64 17 37 C16.05125 37.0825 15.1025 37.165 14.125 37.25 C13.09375 37.4975 12.0625 37.745 11 38 C9.85790183 39.78228936 9.85790183 39.78228936 9 42 C6.59737292 44.59743468 4.19004275 46.85520553 1.375 49 C-1.19594363 51.16500516 -2.39409461 53.06747712 -4 56 C-5.2704964 58.04049422 -6.59431196 60.05017465 -8 62 C-8.66 62 -9.32 62 -10 62 C-10.36158203 62.928125 -10.36158203 62.928125 -10.73046875 63.875 C-12.3048991 66.51035418 -13.47483044 66.93170087 -16.3125 68 C-20.09778647 69.53358873 -22.86919955 71.34356326 -26 74 C-26.66 74 -27.32 74 -28 74 C-27.69830376 70.71549562 -27.32178013 69.31450826 -24.92578125 66.97265625 C-24.06339844 66.34230469 -23.20101563 65.71195312 -22.3125 65.0625 C-13.66456941 58.55014172 -13.66456941 58.55014172 -9 49 C-7.25 45.6875 -7.25 45.6875 -5 43 C-1.75 42.125 -1.75 42.125 1 42 C2.23636238 34.22947929 2.23636238 34.22947929 0.5625 26.6875 C-2.69199747 18.42494022 -1.37719094 8.60744336 0 0 Z " fill="#3F9AA4" transform="translate(285,22)"/>
<path d="M0 0 C0.02698422 2.43757413 0.04683099 4.87484915 0.0625 7.3125 C0.07087891 8.00279297 0.07925781 8.69308594 0.08789062 9.40429688 C0.10307906 12.5483025 0.00193327 14.99420019 -1 18 C6.01311216 14.02921906 6.01311216 14.02921906 12.375 9.125 C15 7 15 7 19 7 C17.44396229 10.81936528 15.04395069 13.26044438 12 16 C11.34 16 10.68 16 10 16 C9.690625 17.423125 9.690625 17.423125 9.375 18.875 C8 22 8 22 4.875 23.375 C3.92625 23.58125 2.9775 23.7875 2 24 C3.90884692 28.54170996 3.90884692 28.54170996 6 33 C6.61875 33.226875 7.2375 33.45375 7.875 33.6875 C13.17236577 36.95940239 14.07313223 45.60279413 15.546875 51.23046875 C15.99869087 53.99199852 16.18675813 55.47534002 15 58 C12.9375 59.25 12.9375 59.25 11 60 C10.81824219 59.41992188 10.63648437 58.83984375 10.44921875 58.2421875 C8.95521068 53.5992701 7.29695486 49.31827514 5 45 C4.690625 44.30390625 4.38125 43.6078125 4.0625 42.890625 C3.7325 42.16359375 3.4025 41.4365625 3.0625 40.6875 C2.76472656 40.01074219 2.46695313 39.33398438 2.16015625 38.63671875 C1.09933725 36.80247914 1.09933725 36.80247914 -1.12890625 36.26953125 C-2.05509766 36.13611328 -2.05509766 36.13611328 -3 36 C-3.1546875 37.794375 -3.1546875 37.794375 -3.3125 39.625 C-3.78891352 43.5624176 -5.01130716 46.54140375 -7 50 C-7.66 50 -8.32 50 -9 50 C-9.11533167 44.57941138 -8.67877461 39.37516113 -8 34 C-7.90460938 33.22398438 -7.80921875 32.44796875 -7.7109375 31.6484375 C-7.47801818 29.76511845 -7.23958865 27.88248222 -7 26 C-7.99 26.33 -8.98 26.66 -10 27 C-9.85851011 25.3954444 -9.71164314 23.79136233 -9.5625 22.1875 C-9.48128906 21.29417969 -9.40007812 20.40085937 -9.31640625 19.48046875 C-9 17 -9 17 -8 14 C-7.80768122 10.64510565 -7.68280276 7.29220944 -7.57421875 3.93359375 C-7 1 -7 1 -5.14453125 -0.46484375 C-3 -1 -3 -1 0 0 Z " fill="#43A0A8" transform="translate(92,24)"/>
<path d="M0 0 C2.4375 0.1875 2.4375 0.1875 3.4375 1.1875 C3.57124329 4.59795379 3.58042943 7.61578228 2.75 10.9375 C2.26610856 15.96997097 3.93432386 20.41470345 5.4375 25.1875 C7.13370673 21.39122779 8.63568661 17.65738851 9.875 13.6875 C11.23569966 9.46788349 13.11246301 5.9556634 15.4375 2.1875 C16.0975 2.1875 16.7575 2.1875 17.4375 2.1875 C17.02790435 5.46426518 16.09419159 7.99284751 14.5625 10.875 C12.52484176 14.7664123 11.3307894 18.66866938 10.16015625 22.890625 C9.4375 25.1875 9.4375 25.1875 7.8125 28.0625 C5.67892128 32.91154255 5.68367944 37.94133122 5.4375 43.1875 C4.7775 42.8575 4.1175 42.5275 3.4375 42.1875 C3.09375 39.45703125 3.09375 39.45703125 2.9375 36 C2.72304979 31.30890176 1.9264545 27.61987034 0.4375 23.1875 C0.13369183 20.86270702 -0.09353145 18.52683311 -0.25 16.1875 C-0.33636719 15.011875 -0.42273438 13.83625 -0.51171875 12.625 C-0.56040595 9.32925092 -0.21595631 6.41056269 0.4375 3.1875 C-3.74200077 6.64639719 -4.89012134 10.17036401 -6.5625 15.1875 C-9.0375 14.1975 -9.0375 14.1975 -11.5625 13.1875 C-11.76746094 14.16332031 -11.97242188 15.13914062 -12.18359375 16.14453125 C-12.45300781 17.41683594 -12.72242188 18.68914063 -13 20 C-13.26683594 21.26457031 -13.53367188 22.52914063 -13.80859375 23.83203125 C-14.5625 27.1875 -14.5625 27.1875 -15.5625 30.1875 C-15.78996428 33.83053909 -15.95658109 37.46755361 -16.08007812 41.11523438 C-16.34794586 46.97294586 -16.34794586 46.97294586 -18.5625 49.1875 C-18.74709347 51.91032469 -18.74709347 51.91032469 -18.5390625 55.0703125 C-18.4875 56.23691406 -18.4359375 57.40351562 -18.3828125 58.60546875 C-18.31835938 59.82878906 -18.25390625 61.05210938 -18.1875 62.3125 C-18.13078125 63.54355469 -18.0740625 64.77460937 -18.015625 66.04296875 C-17.87382317 69.09170806 -17.72238027 72.13966388 -17.5625 75.1875 C-16.9025 75.5175 -16.2425 75.8475 -15.5625 76.1875 C-15.42972656 74.91132812 -15.29695312 73.63515625 -15.16015625 72.3203125 C-14.98197335 70.65102004 -14.80357686 68.98175036 -14.625 67.3125 C-14.53798828 66.47074219 -14.45097656 65.62898438 -14.36132812 64.76171875 C-14.23081055 63.55322266 -14.23081055 63.55322266 -14.09765625 62.3203125 C-14.019104 61.57668457 -13.94055176 60.83305664 -13.85961914 60.06689453 C-13.5625 58.1875 -13.5625 58.1875 -12.5625 56.1875 C-11.9025 56.1875 -11.2425 56.1875 -10.5625 56.1875 C-10.58957031 54.31578125 -10.58957031 54.31578125 -10.6171875 52.40625 C-10.61499202 46.80338236 -10.18446559 41.26538245 -9.6875 35.6875 C-9.60886719 34.6871875 -9.53023437 33.686875 -9.44921875 32.65625 C-9.36542969 31.7075 -9.28164062 30.75875 -9.1953125 29.78125 C-9.12199707 28.92208984 -9.04868164 28.06292969 -8.97314453 27.17773438 C-8.83763184 26.52095703 -8.70211914 25.86417969 -8.5625 25.1875 C-7.9025 24.8575 -7.2425 24.5275 -6.5625 24.1875 C-6.10677083 26.20572917 -5.65104167 28.22395833 -5.1953125 30.2421875 C-4.65775572 32.39469964 -4.65775572 32.39469964 -2.5625 34.1875 C-1.94586594 36.10245991 -1.41465046 38.04561097 -0.9375 40 C-0.67710937 41.03769531 -0.41671875 42.07539062 -0.1484375 43.14453125 C0.38664218 45.92337837 0.55210481 48.36926362 0.4375 51.1875 C-2.62156926 48.67683531 -3.31441278 46.28690067 -4.25 42.5 C-4.50136719 41.50613281 -4.75273437 40.51226562 -5.01171875 39.48828125 C-5.19347656 38.72902344 -5.37523437 37.96976563 -5.5625 37.1875 C-5.69527344 38.12851562 -5.82804687 39.06953125 -5.96484375 40.0390625 C-6.14144531 41.28429688 -6.31804687 42.52953125 -6.5 43.8125 C-6.67402344 45.04226562 -6.84804687 46.27203125 -7.02734375 47.5390625 C-7.20394531 48.74304687 -7.38054687 49.94703125 -7.5625 51.1875 C-7.70816406 52.28835937 -7.85382813 53.38921875 -8.00390625 54.5234375 C-8.5625 57.1875 -8.5625 57.1875 -10.5625 59.1875 C-10.69147097 61.09715258 -10.69147097 61.09715258 -10.5 63.25 C-10.36855107 68.3189994 -11.56501965 72.55086166 -13.5625 77.1875 C-14.5625 78.1875 -14.5625 78.1875 -17.125 78.25 C-17.929375 78.229375 -18.73375 78.20875 -19.5625 78.1875 C-21.91049169 74.51358359 -21.73758211 71.40762352 -21.625 67.125 C-21.4626569 62.06376487 -21.4626569 62.06376487 -22.5625 57.1875 C-23.02839222 50.89795506 -23.02839222 50.89795506 -21.07421875 47.91796875 C-19.13767125 44.42017366 -19.19306168 41.85861017 -19.125 37.875 C-18.91013054 31.84245195 -18.11593067 26.22631392 -16.625 20.375 C-16.45492432 19.69977295 -16.28484863 19.0245459 -16.10961914 18.32885742 C-15.26249714 15.16699576 -14.39761341 12.94017012 -12.5625 10.1875 C-9.9375 10 -9.9375 10 -7.5625 10.1875 C-7.36914062 9.63320313 -7.17578125 9.07890625 -6.9765625 8.5078125 C-6.71617187 7.78335937 -6.45578125 7.05890625 -6.1875 6.3125 C-5.80464844 5.23355469 -5.80464844 5.23355469 -5.4140625 4.1328125 C-4.11556291 1.16651526 -3.27348536 0.23952332 0 0 Z " fill="#B7D641" transform="translate(190.5625,7.8125)"/>
<path d="M0 0 C3 0.125 3 0.125 4 1.125 C4.09968672 3.22721693 4.12968203 5.33292604 4.125 7.4375 C4.12886719 9.16419922 4.12886719 9.16419922 4.1328125 10.92578125 C4.02314591 13.56745582 3.69533594 15.60983954 3 18.125 C2.69439938 22.78200973 2.69439938 22.78200973 4 27.125 C4.1875 30.625 4.1875 30.625 4 34.125 C2 36.125 2 36.125 -0.0625 36.4375 C-3.55536549 36.06591856 -6.53983436 35.0273249 -9.83984375 33.859375 C-12.20027247 33.0569146 -14.53943876 32.52186472 -17 32.125 C-17 31.465 -17 30.805 -17 30.125 C-19.27292941 31.14389939 -20.83024561 31.93402631 -22.5 33.8125 C-24 35.125 -24 35.125 -26 35 C-28.20700414 34.03443569 -29.42932829 32.93127247 -31 31.125 C-31.66 32.445 -32.32 33.765 -33 35.125 C-34.98 35.125 -36.96 35.125 -39 35.125 C-39.39180108 33.54574025 -39.76280736 31.96131206 -40.125 30.375 C-40.33382812 29.49328125 -40.54265625 28.6115625 -40.7578125 27.703125 C-41.03763095 24.72441247 -40.41619024 23.68762996 -39 21.125 C-38.80571065 19.10132636 -38.80571065 19.10132636 -38.8125 17 C-38.30530318 10.90349427 -34.71388652 6.76978235 -31 2.125 C-29.35 2.455 -27.7 2.785 -26 3.125 C-25.67 4.775 -25.34 6.425 -25 8.125 C-24.401875 7.91875 -23.80375 7.7125 -23.1875 7.5 C-21 7.125 -21 7.125 -18 9.125 C-18 9.785 -18 10.445 -18 11.125 C-17.34 11.125 -16.68 11.125 -16 11.125 C-15.34 9.475 -14.68 7.825 -14 6.125 C-11.625 6.375 -11.625 6.375 -9 7.125 C-7.8359375 9.171875 -7.8359375 9.171875 -7 11.125 C-6.79503906 10.41472656 -6.59007812 9.70445313 -6.37890625 8.97265625 C-6.10949219 8.05355469 -5.84007812 7.13445313 -5.5625 6.1875 C-5.29566406 5.27097656 -5.02882812 4.35445312 -4.75390625 3.41015625 C-3.64597235 0.05191101 -3.67729357 0.15322057 0 0 Z M-1 2.125 C-1.61875 3.5790625 -1.61875 3.5790625 -2.25 5.0625 C-2.52328125 5.69414063 -2.7965625 6.32578125 -3.078125 6.9765625 C-3.7261679 8.48683197 -4.36038202 10.00307365 -4.984375 11.5234375 C-5.31953125 12.32007813 -5.6546875 13.11671875 -6 13.9375 C-6.309375 14.68644531 -6.61875 15.43539062 -6.9375 16.20703125 C-8 18.125 -8 18.125 -11 20.125 C-10.67 16.495 -10.34 12.865 -10 9.125 C-11.32 9.455 -12.64 9.785 -14 10.125 C-15.29660434 12.61534386 -15.29660434 12.61534386 -16 15.125 C-16.99 15.125 -17.98 15.125 -19 15.125 C-19.103125 14.485625 -19.20625 13.84625 -19.3125 13.1875 C-19.539375 12.506875 -19.76625 11.82625 -20 11.125 C-20.99 10.795 -21.98 10.465 -23 10.125 C-23.33 13.425 -23.66 16.725 -24 20.125 C-26.20399168 15.57008386 -26.58846263 11.09593824 -27 6.125 C-28.32 6.125 -29.64 6.125 -31 6.125 C-31.33 7.115 -31.66 8.105 -32 9.125 C-32.47953125 9.55425781 -32.9590625 9.98351562 -33.453125 10.42578125 C-37.23182365 14.57662446 -38.03770297 22.30146634 -37.96484375 27.7578125 C-37.69611329 30.1186417 -37.69611329 30.1186417 -37 33.125 C-36.34 33.125 -35.68 33.125 -35 33.125 C-32.70954986 28.31290099 -32.70954986 28.31290099 -32 23.125 C-29.38952199 24.430239 -29.31933577 25.48326574 -28.375 28.1875 C-28.11460938 28.92097656 -27.85421875 29.65445313 -27.5859375 30.41015625 C-27.39257812 30.97605469 -27.19921875 31.54195312 -27 32.125 C-26.01 32.125 -25.02 32.125 -24 32.125 C-23.67 31.135 -23.34 30.145 -23 29.125 C-22.01 29.125 -21.02 29.125 -20 29.125 C-19.67 27.145 -19.34 25.165 -19 23.125 C-17.68 25.435 -16.36 27.745 -15 30.125 C-13.68 30.125 -12.36 30.125 -11 30.125 C-10.67 30.455 -10.34 30.785 -10 31.125 C-9.05125 31.08375 -8.1025 31.0425 -7.125 31 C-4 31.125 -4 31.125 -2.125 32.625 C-1.75375 33.12 -1.3825 33.615 -1 34.125 C-0.01 33.795 0.98 33.465 2 33.125 C1.7525 32.01125 1.7525 32.01125 1.5 30.875 C0.26897392 21.64230437 1.08345587 12.35590871 2 3.125 C1.01 2.795 0.02 2.465 -1 2.125 Z " fill="#B7D641" transform="translate(156,34.875)"/>
<path d="M0 0 C2.75547628 1.1272403 3.90707612 1.85557088 5.75 4.125 C6.2265625 6.03515625 6.2265625 6.03515625 6.375 8.1875 C6.56134292 10.73004556 6.76331865 13.20789925 7.16796875 15.7265625 C7.82223471 20.01491958 7.98790924 22.51941283 6.375 26.625 C2.82887843 30.00225864 -0.48992094 30.53507567 -5.25 31.125 C-5.25 30.465 -5.25 29.805 -5.25 29.125 C-6.219375 29.00125 -7.18875 28.8775 -8.1875 28.75 C-9.7034375 28.440625 -9.7034375 28.440625 -11.25 28.125 C-13.87254064 22.87991872 -13.88260758 15.26005059 -12.25 9.75 C-4.96698113 0.19103774 -4.96698113 0.19103774 0 0 Z M-4.25 15.125 C-4.58 15.785 -4.91 16.445 -5.25 17.125 C-4.59 17.125 -3.93 17.125 -3.25 17.125 C-3.58 16.465 -3.91 15.805 -4.25 15.125 Z " fill="#3F99A2" transform="translate(231.25,35.875)"/>
<path d="M0 0 C0.99 0.33 1.98 0.66 3 1 C3.6875 3.0625 3.6875 3.0625 4 5 C4.350625 4.484375 4.70125 3.96875 5.0625 3.4375 C7 2 7 2 10.5 1.9375 C14 3 14 3 15.9375 5.6875 C17.06301542 9.19645983 17.71005669 11.37082137 17 15 C12.15789474 19 12.15789474 19 9 19 C9 19.66 9 20.32 9 21 C9.99 21.33 10.98 21.66 12 22 C15.16000053 28.95200117 17 36.35090462 17 44 C15.09375 43.796875 15.09375 43.796875 13 43 C12.09375 40.890625 12.09375 40.890625 11.5 38.25 C10.39533936 33.99003798 9.1170097 31.22449279 6 28 C4.0549 30.91765 3.54723683 32.62537285 3 36 C2.01 36 1.02 36 0 36 C-0.06058594 34.83082031 -0.12117187 33.66164062 -0.18359375 32.45703125 C-0.26804034 30.90884386 -0.35268625 29.36066732 -0.4375 27.8125 C-0.49647461 26.65911133 -0.49647461 26.65911133 -0.55664062 25.48242188 C-0.72999098 22.37545011 -0.91082985 19.41966093 -1.55859375 16.37109375 C-2.14078991 13.24372145 -1.88989647 10.41443887 -1.625 7.25 C-1.53476563 6.10015625 -1.44453125 4.9503125 -1.3515625 3.765625 C-1 1 -1 1 0 0 Z " fill="#3D959F" transform="translate(243,32)"/>
<path d="M0 0 C0.99 0 1.98 0 3 0 C2.76201915 1.90384683 2.52336908 3.80761252 2.28125 5.7109375 C2.10161775 7.17294442 1.93374962 8.63647689 1.78125 10.1015625 C1.32673828 14.30579594 0.48445688 18.04144833 -1 22 C0.216875 22.103125 1.43375 22.20625 2.6875 22.3125 C6.40147573 22.77427318 8.99626385 23.65333113 12 26 C12 26.66 12 27.32 12 28 C11.34 28 10.68 28 10 28 C10 28.66 10 29.32 10 30 C8.52031676 29.85950482 7.04125484 29.71245174 5.5625 29.5625 C4.73878906 29.48128906 3.91507812 29.40007813 3.06640625 29.31640625 C1 29 1 29 0 28 C-0.07516846 28.64549805 -0.15033691 29.29099609 -0.2277832 29.95605469 C-0.57661016 32.88904871 -0.94433994 35.81937266 -1.3125 38.75 C-1.43044922 39.76578125 -1.54839844 40.7815625 -1.66992188 41.828125 C-1.79560547 42.8078125 -1.92128906 43.7875 -2.05078125 44.796875 C-2.16075439 45.69760742 -2.27072754 46.59833984 -2.3840332 47.52636719 C-3.07279027 50.29231512 -4.15564313 51.85590779 -6 54 C-7.71084501 52.28915499 -7.13014689 50.05639907 -7.1328125 47.72265625 C-7.13410156 46.65208984 -7.13539063 45.58152344 -7.13671875 44.47851562 C-7.13285156 43.35123047 -7.12898438 42.22394531 -7.125 41.0625 C-7.12886719 39.93908203 -7.13273437 38.81566406 -7.13671875 37.65820312 C-7.13542969 36.58634766 -7.13414062 35.51449219 -7.1328125 34.41015625 C-7.13168457 33.42152588 -7.13055664 32.43289551 -7.12939453 31.41430664 C-7 29 -7 29 -6 27 C-7.98 26.67 -9.96 26.34 -12 26 C-11.67 24.68 -11.34 23.36 -11 22 C-9.35 21.67 -7.7 21.34 -6 21 C-5.95101563 20.34773438 -5.90203125 19.69546875 -5.8515625 19.0234375 C-5.25082102 12.00097673 -4.28252878 5.82423914 0 0 Z " fill="#3E8F94" transform="translate(271,27)"/>
<path d="M0 0 C1 1 1 1 1.09765625 2.84765625 C1.06510417 4.8984375 1.03255208 6.94921875 1 9 C0.01 9.33 -0.98 9.66 -2 10 C-2 7.69 -2 5.38 -2 3 C-3.65 3.33 -5.3 3.66 -7 4 C-7.04898438 4.845625 -7.09796875 5.69125 -7.1484375 6.5625 C-7.56924014 12.94709185 -8.19350763 18.85792595 -10 25 C-11.0725 24.9175 -12.145 24.835 -13.25 24.75 C-16.97800073 24.6763215 -16.97800073 24.6763215 -19.4375 26.6875 C-21.25953249 29.38410809 -21.35430394 30.81126451 -21 34 C-17.535 34.495 -17.535 34.495 -14 35 C-14 35.99 -14 36.98 -14 38 C-17.96 38 -21.92 38 -26 38 C-25.7215625 36.576875 -25.7215625 36.576875 -25.4375 35.125 C-24.71313368 32.10131207 -24.71313368 32.10131207 -26 30 C-25.195625 29.236875 -24.39125 28.47375 -23.5625 27.6875 C-20.83200976 25.20569102 -20.83200976 25.20569102 -20 22 C-17.67793475 21.29508733 -15.34406932 20.62787571 -13 20 C-12.67 19.34 -12.34 18.68 -12 18 C-18.68311148 17.28746649 -18.68311148 17.28746649 -24.4375 20 C-24.953125 20.66 -25.46875 21.32 -26 22 C-26.99 22 -27.98 22 -29 22 C-29.12117188 22.66386719 -29.24234375 23.32773437 -29.3671875 24.01171875 C-30.23533505 28.58618855 -31.26964064 32.6741016 -33 37 C-33.16798262 39.70886941 -33.16798262 39.70886941 -33 42 C-32.01 42 -31.02 42 -30 42 C-29.319375 43.7015625 -29.319375 43.7015625 -28.625 45.4375 C-27.42904194 49.04721692 -27.42904194 49.04721692 -25 50 C-25 49.34 -25 48.68 -25 48 C-23.515 47.505 -23.515 47.505 -22 47 C-22.875 50.875 -22.875 50.875 -24 52 C-25.66617115 52.04063832 -27.33388095 52.042721 -29 52 C-29.433125 51.030625 -29.86625 50.06125 -30.3125 49.0625 C-31.7014861 45.72268235 -31.7014861 45.72268235 -35 45 C-35 45.66 -35 46.32 -35 47 C-35.99 46.67 -36.98 46.34 -38 46 C-37.9278125 45.14277344 -37.855625 44.28554687 -37.78125 43.40234375 C-37.30907298 37.58538524 -36.86426351 31.83666909 -37 26 C-36.34 26 -35.68 26 -35 26 C-35 26.66 -35 27.32 -35 28 C-34.34 28 -33.68 28 -33 28 C-32.814375 26.96875 -32.62875 25.9375 -32.4375 24.875 C-31.08815236 20.13300685 -28.03504479 17.63116706 -24 15 C-19.34693712 13.04081563 -14.70033347 14.76091427 -10 16 C-10.01160156 15.08476563 -10.02320312 14.16953125 -10.03515625 13.2265625 C-10.04417969 12.03804687 -10.05320312 10.84953125 -10.0625 9.625 C-10.07410156 8.44164062 -10.08570312 7.25828125 -10.09765625 6.0390625 C-10 3 -10 3 -9 1 C-6.00020367 -0.07135583 -3.16471447 -0.17106565 0 0 Z " fill="#BBDA40" transform="translate(93,21)"/>
<path d="M0 0 C1.58646933 0.22925857 3.17120045 0.47280619 4.75 0.75 C4.09 2.07 3.43 3.39 2.75 4.75 C0.77 4.75 -1.21 4.75 -3.25 4.75 C-3.3325 5.36875 -3.415 5.9875 -3.5 6.625 C-4.25 8.75 -4.25 8.75 -6.3125 10 C-6.951875 10.2475 -7.59125 10.495 -8.25 10.75 C-8.04375 11.6575 -7.8375 12.565 -7.625 13.5 C-7.2372755 16.86027897 -7.44588033 17.99075815 -9.25 20.75 C-8.59 20.42 -7.93 20.09 -7.25 19.75 C-5.20501575 19.83780403 -3.16255052 19.99241538 -1.125 20.1875 C-0.02929688 20.28933594 1.06640625 20.39117187 2.1953125 20.49609375 C3.45988281 20.62177734 3.45988281 20.62177734 4.75 20.75 C4.55859375 22.625 4.55859375 22.625 3.75 24.75 C1.53515625 25.875 1.53515625 25.875 -1.1875 26.75 C-5.06017258 27.90687927 -5.06017258 27.90687927 -7.56640625 30.875 C-7.90478516 31.803125 -7.90478516 31.803125 -8.25 32.75 C-11.25 31.75 -11.25 31.75 -12.4375 29.875 C-13.25 27.75 -13.25 27.75 -13.25 24.75 C-14.24 24.75 -15.23 24.75 -16.25 24.75 C-17.5 18.125 -17.5 18.125 -15.25 14.75 C-14.45988819 12.16041887 -13.79444502 9.55381181 -13.12890625 6.9296875 C-12.83886719 6.21039063 -12.54882812 5.49109375 -12.25 4.75 C-11.26 4.42 -10.27 4.09 -9.25 3.75 C-8.734375 3.04875 -8.21875 2.3475 -7.6875 1.625 C-4.67913608 -0.68912609 -3.68150156 -0.38424699 0 0 Z " fill="#439CA0" transform="translate(76.25,38.25)"/>
<path d="M0 0 C3.30428713 2.12942949 3.96863416 3.01510372 4.8125 6.8125 C5.05670551 9.57308399 4.99572091 12.01838108 4.8125 14.8125 C4.1525 15.4725 3.4925 16.1325 2.8125 16.8125 C2.73 17.616875 2.6475 18.42125 2.5625 19.25 C1.8125 21.8125 1.8125 21.8125 -0.875 23.625 C-4.24230373 24.83214662 -6.64498905 25.0655365 -10.1875 24.8125 C-10.31125 24.173125 -10.435 23.53375 -10.5625 22.875 C-12.11415066 15.10329963 -12.11415066 15.10329963 -14.3125 7.5 C-15.1875 4.8125 -15.1875 4.8125 -15.1875 0.8125 C-9.47232148 -0.98049718 -5.68453594 -2.11776829 0 0 Z M-7.1875 0.8125 C-8.8375 2.1325 -10.4875 3.4525 -12.1875 4.8125 C-11.07811647 11.11846952 -9.25552099 16.18779486 -6.1875 21.8125 C-1.66923575 20.02397069 -1.66923575 20.02397069 1.125 16.25 C1.351875 15.445625 1.57875 14.64125 1.8125 13.8125 C2.1425 13.1525 2.4725 12.4925 2.8125 11.8125 C2.31533229 8.88542512 1.36047013 6.34413007 -0.1875 3.8125 C-2.50988765 2.24192742 -4.46167652 1.63539011 -7.1875 0.8125 Z " fill="#B7D541" transform="translate(29.1875,23.1875)"/>
<path d="M0 0 C0.99 0.33 1.98 0.66 3 1 C2.9278125 1.72703125 2.855625 2.4540625 2.78125 3.203125 C1.4564837 17.14940622 1.4564837 17.14940622 3 31 C1.68 31 0.36 31 -1 31 C-1.66 30.34 -2.32 29.68 -3 29 C-4.99958364 28.95919217 -7.00045254 28.95745644 -9 29 C-10 28 -10 28 -10.0625 24.4375 C-10.041875 23.303125 -10.02125 22.16875 -10 21 C-9.34 21 -8.68 21 -8 21 C-8 22.32 -8 23.64 -8 25 C-6.02 24.34 -4.04 23.68 -2 23 C-2.34786708 21.02463255 -2.34786708 21.02463255 -3 19 C-3.66 18.67 -4.32 18.34 -5 18 C-4.566875 16.576875 -4.566875 16.576875 -4.125 15.125 C-2.97445372 11.14296749 -2.2096451 7.11392608 -1.46484375 3.0390625 C-1 1 -1 1 0 0 Z " fill="#3B8281" transform="translate(155,37)"/>
<path d="M0 0 C1.28571429 8.42857143 1.28571429 8.42857143 0 13 C0.66 13 1.32 13 2 13 C2.2494783 20.29031024 1.72330907 26.90673679 0 34 C-0.99 34 -1.98 34 -3 34 C-3.13277344 32.83082031 -3.26554687 31.66164063 -3.40234375 30.45703125 C-3.58062013 28.90884161 -3.75901161 27.36066522 -3.9375 25.8125 C-4.06801758 24.65911133 -4.06801758 24.65911133 -4.20117188 23.48242188 C-4.65028121 19.60677462 -5.222569 15.82523572 -6 12 C-6.27982327 4.02503682 -6.27982327 4.02503682 -5 1 C-2 0 -2 0 0 0 Z " fill="#439494" transform="translate(55,37)"/>
<path d="M0 0 C0.99 0.33 1.98 0.66 3 1 C3.33 5.29 3.66 9.58 4 14 C1.69 14 -0.62 14 -3 14 C-3.33 13.01 -3.66 12.02 -4 11 C-4.33 13.64 -4.66 16.28 -5 19 C-4.01 18.01 -3.02 17.02 -2 16 C-1.01 16.33 -0.02 16.66 1 17 C0.67 17.66 0.34 18.32 0 19 C-0.66 18.67 -1.32 18.34 -2 18 C-2.12375 18.53625 -2.2475 19.0725 -2.375 19.625 C-3.12206016 22.4638286 -4.05303364 25.22223202 -5 28 C-5.66 28 -6.32 28 -7 28 C-8.58181725 20.66612005 -7.439275 14.07583344 -5 7 C-3.46484375 5.25 -3.46484375 5.25 -2 4 C-0.82425289 1.90010348 -0.82425289 1.90010348 0 0 Z " fill="#3D7A72" transform="translate(126,40)"/>
<path d="M0 0 C0.95465783 2.16967689 1.14401212 3.56328793 0.3984375 5.82421875 C-0.35870385 7.5684743 -1.17609198 9.28627131 -2 11 C-1.01 11.33 -0.02 11.66 1 12 C1 13.32 1 14.64 1 16 C-2 18 -2 18 -5 18 C-5 16.68 -5 15.36 -5 14 C-5.66 14 -6.32 14 -7 14 C-7 15.98 -7 17.96 -7 20 C-8.32 20.33 -9.64 20.66 -11 21 C-10.34 17.7 -9.68 14.4 -9 11 C-8.01 11 -7.02 11 -6 11 C-2.74148594 7.64274309 -1.24962896 4.4778371 0 0 Z " fill="#4B8064" transform="translate(152,44)"/>
<path d="M0 0 C0.99 0.33 1.98 0.66 3 1 C2.67 4.96 2.34 8.92 2 13 C1.34 13 0.68 13 0 13 C-0.33 16.3 -0.66 19.6 -1 23 C-1.66 21.68 -2.32 20.36 -3 19 C-3.66 18.67 -4.32 18.34 -5 18 C-4.71125 17.05125 -4.4225 16.1025 -4.125 15.125 C-2.97445372 11.14296749 -2.2096451 7.11392608 -1.46484375 3.0390625 C-1 1 -1 1 0 0 Z " fill="#40B0C5" transform="translate(155,37)"/>
<path d="M0 0 C0.33 1.32 0.66 2.64 1 4 C2.65 4 4.3 4 6 4 C6.33 3.01 6.66 2.02 7 1 C7 1.99 7 2.98 7 4 C7.66 4 8.32 4 9 4 C9 7.96 9 11.92 9 16 C8.67 15.34 8.34 14.68 8 14 C7.01 13.67 6.02 13.34 5 13 C4.67 11.02 4.34 9.04 4 7 C3.34 7 2.68 7 2 7 C1.01 8.485 1.01 8.485 0 10 C-0.66 10 -1.32 10 -2 10 C-1.85950482 8.52031676 -1.71245174 7.04125484 -1.5625 5.5625 C-1.48128906 4.73878906 -1.40007812 3.91507813 -1.31640625 3.06640625 C-1 1 -1 1 0 0 Z " fill="#3FA5B5" transform="translate(122,50)"/>
<path d="M0 0 C0.99 0.33 1.98 0.66 3 1 C3.33 5.29 3.66 9.58 4 14 C1.69 14 -0.62 14 -3 14 C-2.67 13.01 -2.34 12.02 -2 11 C-2 11.66 -2 12.32 -2 13 C-1.34 13 -0.68 13 0 13 C0 11.35 0 9.7 0 8 C-1.32 8.33 -2.64 8.66 -4 9 C-4 7.68 -4 6.36 -4 5 C-3.34 4.67 -2.68 4.34 -2 4 C-0.86649466 1.98330173 -0.86649466 1.98330173 0 0 Z " fill="#378188" transform="translate(126,40)"/>
<path d="M0 0 C0.99 0.33 1.98 0.66 3 1 C3 1.99 3 2.98 3 4 C3.66 4 4.32 4 5 4 C4.67 6.64 4.34 9.28 4 12 C2.35 11.67 0.7 11.34 -1 11 C-2.26264601 6.70700357 -1.62950412 4.12168689 0 0 Z " fill="#41908F" transform="translate(50,22)"/>
<path d="M0 0 C-1.55603771 3.81936528 -3.95604931 6.26044438 -7 9 C-7.66 9 -8.32 9 -9 9 C-9.66 10.32 -10.32 11.64 -11 13 C-10.67 11.35 -10.34 9.7 -10 8 C-11.98 8.66 -13.96 9.32 -16 10 C-13.82975216 6.74462823 -12.31940705 5.92988782 -9 4 C-8.154375 3.278125 -7.30875 2.55625 -6.4375 1.8125 C-4 0 -4 0 0 0 Z " fill="#43857A" transform="translate(111,31)"/>
<path d="M0 0 C0.66 0 1.32 0 2 0 C4 5.625 4 5.625 4 9 C3.34 8.34 2.68 7.68 2 7 C0.0549 9.91765 -0.45276317 11.62537285 -1 15 C-1.99 15 -2.98 15 -4 15 C-4 11.37 -4 7.74 -4 4 C-3.34 4.66 -2.68 5.32 -2 6 C-1.34 4.02 -0.68 2.04 0 0 Z " fill="#3C7972" transform="translate(247,53)"/>
<path d="M0 0 C-1.51671964 4.55015893 -5.16891053 6.50057264 -9 9 C-9.33 8.34 -9.66 7.68 -10 7 C-11.093125 7.515625 -12.18625 8.03125 -13.3125 8.5625 C-17 10 -17 10 -20 9 C-19.19175781 8.60167969 -18.38351562 8.20335937 -17.55078125 7.79296875 C-16.48214844 7.26316406 -15.41351563 6.73335937 -14.3125 6.1875 C-13.25675781 5.66542969 -12.20101563 5.14335938 -11.11328125 4.60546875 C-8.0210217 3.06623177 -8.0210217 3.06623177 -5.29296875 1.30078125 C-3 0 -3 0 0 0 Z " fill="#3C8281" transform="translate(318,43)"/>
<path d="M0 0 C0.66 0 1.32 0 2 0 C1.28786282 4.49406959 0.40228575 8.92859613 -0.5625 13.375 C-0.83191406 14.62023438 -1.10132813 15.86546875 -1.37890625 17.1484375 C-1.68634766 18.55996094 -1.68634766 18.55996094 -2 20 C-2.33 20 -2.66 20 -3 20 C-3.33 17.03 -3.66 14.06 -4 11 C-4.33 11 -4.66 11 -5 11 C-5.38613383 8.37428995 -5.38493778 6.6156121 -3.95703125 4.33203125 C-2.625 2.6875 -2.625 2.6875 0 0 Z " fill="#377C7F" transform="translate(213,2)"/>
<path d="M0 0 C1.67542976 0.28604898 3.34385343 0.61781233 5 1 C5 1.99 5 2.98 5 4 C4.01 3.34 3.02 2.68 2 2 C1.34 2 0.68 2 0 2 C-0.1546875 3.794375 -0.1546875 3.794375 -0.3125 5.625 C-0.78891352 9.5624176 -2.01130716 12.54140375 -4 16 C-4.66 16 -5.32 16 -6 16 C-6.08159574 11.83861737 -5.98248524 8.0527516 -5 4 C-4.67 4 -4.34 4 -4 4 C-4 5.65 -4 7.3 -4 9 C-3.34 9 -2.68 9 -2 9 C-1.855625 7.700625 -1.71125 6.40125 -1.5625 5.0625 C-1.125 1.125 -1.125 1.125 0 0 Z " fill="#457E6B" transform="translate(89,58)"/>
<path d="M0 0 C1.485 0.99 1.485 0.99 3 2 C3 2.66 3 3.32 3 4 C3.66 4 4.32 4 5 4 C5.33 2.68 5.66 1.36 6 0 C6.33820166 1.5823006 6.67035939 3.16589375 7 4.75 C7.185625 5.63171875 7.37125 6.5134375 7.5625 7.421875 C8 10 8 10 8 14 C6.10546875 13.8046875 6.10546875 13.8046875 4 13 C2.98828125 10.8203125 2.98828125 10.8203125 2.3125 8.125 C2.08175781 7.24070312 1.85101563 6.35640625 1.61328125 5.4453125 C1.41089844 4.63835937 1.20851562 3.83140625 1 3 C0.67 2.01 0.34 1.02 0 0 Z " fill="#3C7C77" transform="translate(252,62)"/>
<path d="M0 0 C0.309375 0.639375 0.61875 1.27875 0.9375 1.9375 C1.8345163 3.93610821 1.8345163 3.93610821 3 5 C3.23192865 6.51469448 3.41215238 8.03754562 3.5625 9.5625 C3.64628906 10.38878906 3.73007813 11.21507812 3.81640625 12.06640625 C3.87699219 12.70449219 3.93757812 13.34257813 4 14 C1 14 1 14 -1.25 12.3125 C-3 10 -3 10 -2.875 7.5625 C-1.99977916 4.99935326 -1.06697195 2.48960123 0 0 Z M0 6 C-0.33 6.66 -0.66 7.32 -1 8 C-0.34 8 0.32 8 1 8 C0.67 7.34 0.34 6.68 0 6 Z " fill="#B1D142" transform="translate(227,45)"/>
<path d="M0 0 C0.33 0 0.66 0 1 0 C1.77040851 6.06696699 2.09706112 11.88514973 2 18 C-0.51620437 16.10776005 -0.98306794 15.0892058 -1.58203125 11.93359375 C-1.65808594 10.77988281 -1.73414063 9.62617187 -1.8125 8.4375 C-1.90144531 7.28121094 -1.99039063 6.12492187 -2.08203125 4.93359375 C-2 2 -2 2 0 0 Z " fill="#ADCB41" transform="translate(170,56)"/>
<path d="M0 0 C0.66 0.33 1.32 0.66 2 1 C1.34 5.29 0.68 9.58 0 14 C-0.33 14 -0.66 14 -1 14 C-1.33 11.69 -1.66 9.38 -2 7 C-2.99 8.98 -3.98 10.96 -5 13 C-6 10 -6 10 -5.29296875 8.02734375 C-4.92816406 7.33769531 -4.56335938 6.64804687 -4.1875 5.9375 C-3.83042969 5.24527344 -3.47335938 4.55304687 -3.10546875 3.83984375 C-2 2 -2 2 0 0 Z " fill="#3C6C5B" transform="translate(190,10)"/>
<path d="M0 0 C0.886875 0.4125 1.77375 0.825 2.6875 1.25 C1.883125 1.5903125 1.883125 1.5903125 1.0625 1.9375 C-1.06275221 3.11198149 -2.61496801 4.29815247 -4.4375 5.875 C-7.3125 8.25 -7.3125 8.25 -9.3125 8.25 C-9.02621766 4.81461196 -8.4622966 3.41691622 -6.125 0.8125 C-3.3125 -0.75 -3.3125 -0.75 0 0 Z " fill="#3C8281" transform="translate(266.3125,87.75)"/>
<path d="M0 0 C0.99 0.33 1.98 0.66 3 1 C3 2.65 3 4.3 3 6 C2.67 4.68 2.34 3.36 2 2 C0.68 2.33 -0.64 2.66 -2 3 C-1.95875 4.2375 -1.9175 5.475 -1.875 6.75 C-1.75148437 10.455469 -2.19431894 11.38863788 -4 15 C-4 10.71 -4 6.42 -4 2 C-2.68 1.34 -1.36 0.68 0 0 Z " fill="#5B8655" transform="translate(89,23)"/>
<path d="M0 0 C0.66 0 1.32 0 2 0 C2 1.32 2 2.64 2 4 C3.65 3.34 5.3 2.68 7 2 C7 2.66 7 3.32 7 4 C7.66 4.33 8.32 4.66 9 5 C6 7 6 7 2.8125 6.625 C1.884375 6.41875 0.95625 6.2125 0 6 C0 4.02 0 2.04 0 0 Z " fill="#3DA3B6" transform="translate(145,58)"/>
<path d="M0 0 C0.99 0.33 1.98 0.66 3 1 C2.67 4.96 2.34 8.92 2 13 C1.67 13 1.34 13 1 13 C0.31974363 11.00458132 -0.34490497 9.00382009 -1 7 C-1.2475 6.278125 -1.495 5.55625 -1.75 4.8125 C-2 3 -2 3 0 0 Z " fill="#3A7670" transform="translate(155,37)"/>
<path d="M0 0 C1.15941038 3.47823115 0.70820884 5.45895578 0 9 C1.32 9.33 2.64 9.66 4 10 C4.33 12.31 4.66 14.62 5 17 C2 13.375 2 13.375 2 10 C1.01 10 0.02 10 -1 10 C-2.25 3.375 -2.25 3.375 0 0 Z " fill="#437159" transform="translate(61,53)"/>
<path d="M0 0 C0.33 0 0.66 0 1 0 C1 2.31 1 4.62 1 7 C2.98 6.67 4.96 6.34 7 6 C6.34 7.32 5.68 8.64 5 10 C3.35 10 1.7 10 0 10 C-1.231394 6.30581799 -0.64432764 3.7943739 0 0 Z " fill="#AFD143" transform="translate(242,61)"/>
<path d="M0 0 C-0.33 1.32 -0.66 2.64 -1 4 C-2.32 4.33 -3.64 4.66 -5 5 C-5.33 6.32 -5.66 7.64 -6 9 C-6.66 8.67 -7.32 8.34 -8 8 C-6.6875 4.5625 -6.6875 4.5625 -5 1 C-2 0 -2 0 0 0 Z " fill="#418C8A" transform="translate(308,50)"/>
<path d="M0 0 C0.66 1.32 1.32 2.64 2 4 C2.33 4.33 2.66 4.66 3 5 C2.71269945 7.33944736 2.38063221 9.6739143 2 12 C1.01 12 0.02 12 -1 12 C-0.67 8.04 -0.34 4.08 0 0 Z " fill="#ADCC41" transform="translate(205,35)"/>
<path d="M0 0 C0.99 0.33 1.98 0.66 3 1 C2.01 3.31 1.02 5.62 0 8 C-0.66 8 -1.32 8 -2 8 C-2.6875 6.25 -2.6875 6.25 -3 4 C-1.5625 1.75 -1.5625 1.75 0 0 Z " fill="#B0CF41" transform="translate(251,40)"/>
<path d="M0 0 C1.98 0 3.96 0 6 0 C5.125 3.875 5.125 3.875 4 5 C2.33382885 5.04063832 0.66611905 5.042721 -1 5 C-0.34 4.01 0.32 3.02 1 2 C0.67 1.34 0.34 0.68 0 0 Z " fill="#497F68" transform="translate(75,59)"/>
<path d="M0 0 C0.99 0.495 0.99 0.495 2 1 C2 1.99 2 2.98 2 4 C2.99 4 3.98 4 5 4 C5.66 3.34 6.32 2.68 7 2 C6.67 4.31 6.34 6.62 6 9 C1.3125 5.484375 1.3125 5.484375 0 4 C0 2.68 0 1.36 0 0 Z " fill="#396E64" transform="translate(135,46)"/>
<path d="M0 0 C-1.04874998 2.62187494 -1.64931313 3.79371361 -4.125 5.25 C-4.74375 5.4975 -5.3625 5.745 -6 6 C-5.67 5.01 -5.34 4.02 -5 3 C-5.99 3 -6.98 3 -8 3 C-3.375 0 -3.375 0 0 0 Z " fill="#3C6D5E" transform="translate(318,43)"/>
<path d="M0 0 C0.99 0 1.98 0 3 0 C2.45276317 3.37462715 1.9451 5.08235 0 8 C-1.125 5.6875 -1.125 5.6875 -2 3 C-1.34 2.01 -0.68 1.02 0 0 Z " fill="#327278" transform="translate(271,27)"/>
<path d="M0 0 C2 1 2 1 3 3 C2.34 3 1.68 3 1 3 C0.67 5.31 0.34 7.62 0 10 C-1.58538318 7.48203847 -2.0373656 6.32134414 -1.6875 3.3125 C-1 1 -1 1 0 0 Z " fill="#ACCB42" transform="translate(178,18)"/>
<path d="M0 0 C2 3 2 3 1.875 5.0625 C0.7413007 7.57283417 -0.48618938 8.02691202 -3 9 C-2.67 7.68 -2.34 6.36 -2 5 C-1.67 5 -1.34 5 -1 5 C-0.67 3.35 -0.34 1.7 0 0 Z " fill="#4B7A5A" transform="translate(106,75)"/>
<path d="M0 0 C2.475 0.495 2.475 0.495 5 1 C5 2.65 5 4.3 5 6 C4.34 6 3.68 6 3 6 C0.8614515 3.8614515 0.57344937 2.86724686 0 0 Z " fill="#5F9B71" transform="translate(121,47)"/>
<path d="M0 0 C2.0625 0.4375 2.0625 0.4375 4 1 C4.33 2.65 4.66 4.3 5 6 C4.01 6 3.02 6 2 6 C2 4.68 2 3.36 2 2 C1.01 1.67 0.02 1.34 -1 1 C-0.67 0.67 -0.34 0.34 0 0 Z " fill="#C4DF3A" transform="translate(272,24)"/>
<path d="M0 0 C0.33 0 0.66 0 1 0 C0.67 3.96 0.34 7.92 0 12 C-0.33 12 -0.66 12 -1 12 C-1.22162329 10.37675914 -1.42689803 8.751279 -1.625 7.125 C-1.74101562 6.22007813 -1.85703125 5.31515625 -1.9765625 4.3828125 C-1.98429688 3.59648437 -1.99203125 2.81015625 -2 2 C-1.34 1.34 -0.68 0.68 0 0 Z " fill="#3A8386" transform="translate(190,12)"/>
<path d="M0 0 C0.66 0.33 1.32 0.66 2 1 C1.34 1.66 0.68 2.32 0 3 C0 3.99 0 4.98 0 6 C-0.99 6.33 -1.98 6.66 -3 7 C-2.25 2.25 -2.25 2.25 0 0 Z " fill="#3B7166" transform="translate(260,89)"/>
<path d="M0 0 C0.99 0 1.98 0 3 0 C3 0.66 3 1.32 3 2 C2.01 2 1.02 2 0 2 C0 1.34 0 0.68 0 0 Z " fill="#91A026" transform="translate(277,87)"/>
</svg>
